# xmcd
#
# Track frame offsets:
#	150
#	13860
#	27672
#	40177
#	53943
#	67304
#	78715
#	91905
#	106100
#	120072
#
# Disc length: 1763
#
# Revision: 1
# Processed by: cddbd v1.5.1PL0 Copyright (c) Steve Scherf et al.
# Submitted via: ExactAudioCopy v0.95a4
# Normalized: r0:TDELIM( - )
#
DISCID=7f06e10a
DTITLE=Various Artist - The Blues
DYEAR=2002
DGENRE=Blues
TTITLE0=Blind Lemon Jefferson - Matchbox Blues
TTITLE1=Rev. Gary Davis - I Saw The Light
TTITLE2=Mississippi John Hurt - Candy Man Blues
TTITLE3=Skip James - Devil Got My Woman
TTITLE4=Charlie Patton - Down the Dirt Road Blues
TTITLE5=Blind Willie McTell - Statesboro Blues
TTITLE6=Robert Wilkins - That's No Way to Get Along
TTITLE7=Furry Lewis - Kassie Jones
TTITLE8=Blind Willie Johnson - I Know His Blood Can Make Me Whole
TTITLE9=Big Bill Broonzy - Good Liquor Gonna Carry Me Down
EXTD=
EXTT0=
EXTT1=
EXTT2=
EXTT3=
EXTT4=
EXTT5=
EXTT6=
EXTT7=
EXTT8=
EXTT9=
PLAYORDER=
